<?xml version="1.0" encoding="utf-8"?>
<!-- Generator: Adobe Illustrator 26.2.1, SVG Export Plug-In . SVG Version: 6.00 Build 0)  -->
<svg version="1.1" xmlns="http://www.w3.org/2000/svg" xmlns:xlink="http://www.w3.org/1999/xlink" x="0px" y="0px"
	 viewBox="0 0 150 60" style="enable-background:new 0 0 150 60;" xml:space="preserve">
<style type="text/css">
	.st0{display:none;}
	.st1{display:inline;}
	.st2{fill:#231F20;}
	.st3{fill:#FFD300;}
	.st4{fill:#FFFFFF;}
</style>
<g id="Background" class="st0">
	<g class="st1">
		<rect class="st2" width="150" height="60"/>
	</g>
</g>
<g id="Layer_1">
	<g>
		<path class="st3" d="M49.61,6.06c-2.19,1.63-3.91,5.56-2.62,7.08c0,0,0,0,0,0s0.68-0.06,1.69,0.44c1.29,0.64,1.47,1.14,1.47,1.14
			c1.41,0.3,4.31-2.39,4.23-6.38C54.31,4.35,51.85,4.39,49.61,6.06z"/>
		<rect x="137.85" y="11.12" class="st3" width="4.48" height="24.46"/>
		<rect x="137.83" y="38.27" class="st3" width="4.48" height="4.48"/>
		<path class="st4" d="M47.35,12.37c0,0-0.6-1.89,1.35-4.52c0.7-0.95,1.56-1.82,2.9-2.4C51.61,5.45,48.27,7.83,47.35,12.37z"/>
		<path class="st4" d="M5.27,29.23H1.88v-4.5h3.39V11.19H22.2c4.94,0,9.04,4.05,9.04,9.04c0,2.67-1.43,5.34-3.3,6.86
			c2.05,1.56,3.3,4.01,3.3,6.64c0,4.99-4.1,9.04-9.04,9.04H5.27V29.23z M9.81,24.73H22.2c2.49,0,4.5-2.05,4.5-4.5
			c0-2.5-2-4.54-4.5-4.54H9.81V24.73z M9.81,38.27H22.2c2.54,0,4.63-2,4.63-4.54c0-2.49-2.09-4.5-4.63-4.5H9.81V38.27z"/>
		<path class="st4" d="M40.64,11.19v31.58h-4.5V15.69h-2.27v-4.5H40.64z"/>
		<path class="st4" d="M51.27,20.23v22.54h-4.5V24.73H44.5v-4.5H51.27z"/>
		<path class="st4" d="M66.81,24.29c-2.23,0-3.83,0.98-4.94,2.18v16.3h-4.5v-16.3l-3.21-3.21l2.94-3.03l2.45,2.45
			c0,0,2.32-2.89,7.26-2.89c7.79,0,10.78,5.57,10.78,11.36v11.62h-4.45v-10.6C73.14,27.67,71.62,24.29,66.81,24.29z"/>
		<path class="st4" d="M110.25,11.19v31.58h-4.5V15.69h-2.27v-4.5H110.25z"/>
		<path class="st4" d="M48.68,13.59c-1.01-0.5-1.69-0.44-1.69-0.44s0,0,0,0c-0.01,0.02-1.01,1.88-1.02,2.5c0,0,0.84,1.62,2.9,1.39
			c0,0,0.26-0.13,1.27-2.31C50.15,14.72,49.97,14.23,48.68,13.59z"/>
		<path class="st4" d="M101.38,24.71c-1.74-2.81-5.48-4.94-9.53-4.94c-6.24,0-11.76,5.26-11.76,11.71c0,6.46,5.26,11.72,11.76,11.72
			c2.18,0,3.79-0.4,5.03-1.11c-0.01,0.35-0.04,0.67-0.08,0.99c-0.26,1.87-1.23,3.8-2.66,5.2c-3.16,2.62-7.92,2.19-7.92,2.19V55
			c5.08,0.1,8.45-1.31,10.69-3.23l0.01,0.01c0.14-0.12,0.27-0.25,0.4-0.38c1.53-1.44,2.48-3.1,3.07-4.62
			c0.63-1.57,0.99-3.28,0.99-5.06V24.71z M91.85,38.7c-4.01,0-7.22-3.25-7.22-7.22c0-3.96,3.3-7.22,7.22-7.22
			c2.05,0,4.05,0.98,5.08,2.18v10.07C95.9,37.72,94.3,38.7,91.85,38.7z"/>
		<path class="st4" d="M134.62,24.71c-0.75-1.21-1.86-2.29-3.22-3.13c-1.79-1.12-4-1.81-6.32-1.81c-6.24,0-11.76,5.26-11.76,11.71
			c0,2.32,0.69,4.49,1.86,6.31c0.82,1.27,1.88,2.38,3.11,3.25l0.02-0.02c4.49,3.12,10.99,2.84,15.07-1.23
			c0.45-0.45,0.86-0.94,1.22-1.44l-3.29-3.29c-0.31,0.54-0.68,1.05-1.14,1.52c-2.32,2.32-5.88,2.69-8.61,1.19l13.04-13.04V24.71z
			 M118.53,34.46c-0.41-0.91-0.65-1.92-0.65-2.98c0-3.96,3.3-7.22,7.22-7.22c1.04,0,2.07,0.26,2.97,0.66L118.53,34.46z"/>
		<g>
			<path class="st4" d="M144.76,11.45c-0.1-0.07-0.22-0.1-0.36-0.1c-0.06,0-0.12,0.01-0.18,0.02c-0.06,0.01-0.11,0.03-0.15,0.06
				s-0.08,0.07-0.11,0.11c-0.03,0.05-0.04,0.11-0.04,0.18c0,0.07,0.02,0.12,0.06,0.16s0.09,0.07,0.16,0.1
				c0.07,0.03,0.14,0.05,0.22,0.06c0.08,0.02,0.17,0.04,0.25,0.06s0.17,0.04,0.25,0.07c0.08,0.03,0.16,0.06,0.22,0.11
				s0.12,0.1,0.16,0.17c0.04,0.07,0.06,0.16,0.06,0.26c0,0.11-0.03,0.21-0.08,0.29c-0.05,0.08-0.12,0.15-0.2,0.2
				c-0.08,0.05-0.17,0.09-0.27,0.11s-0.2,0.03-0.3,0.03c-0.12,0-0.23-0.01-0.34-0.04c-0.11-0.03-0.2-0.08-0.28-0.14
				s-0.15-0.14-0.19-0.23c-0.05-0.09-0.07-0.21-0.07-0.34h0.27c0,0.09,0.02,0.17,0.05,0.23c0.03,0.06,0.08,0.12,0.14,0.16
				c0.06,0.04,0.12,0.07,0.2,0.09c0.08,0.02,0.15,0.03,0.23,0.03c0.06,0,0.13-0.01,0.19-0.02c0.06-0.01,0.12-0.03,0.18-0.06
				c0.05-0.03,0.09-0.07,0.13-0.12c0.03-0.05,0.05-0.11,0.05-0.19c0-0.07-0.02-0.13-0.06-0.18c-0.04-0.05-0.09-0.08-0.16-0.11
				c-0.06-0.03-0.14-0.05-0.22-0.07s-0.17-0.04-0.25-0.06s-0.17-0.04-0.25-0.07s-0.16-0.06-0.22-0.1s-0.12-0.09-0.16-0.16
				s-0.06-0.15-0.06-0.24c0-0.11,0.02-0.2,0.07-0.28c0.04-0.08,0.1-0.14,0.18-0.19c0.07-0.05,0.16-0.09,0.25-0.11
				c0.09-0.03,0.19-0.04,0.29-0.04c0.11,0,0.21,0.01,0.31,0.04c0.09,0.03,0.18,0.07,0.25,0.12c0.07,0.06,0.13,0.13,0.17,0.21
				s0.06,0.19,0.07,0.3h-0.27C144.91,11.63,144.85,11.52,144.76,11.45z"/>
			<path class="st4" d="M146.03,11.16l0.68,1.8l0.68-1.8h0.39v2.14h-0.27v-1.78h-0.01l-0.67,1.78h-0.24l-0.67-1.78h-0.01v1.78h-0.27
				v-2.14H146.03z"/>
		</g>
	</g>
	<g>
		<path class="st4" d="M5.34,49.42h2.11c1.27,0,2.11,0.68,2.11,1.79v0.02c0,1.22-1.01,1.84-2.21,1.84H5.97v1.99H5.34V49.42z
			 M7.36,52.48c0.93,0,1.55-0.5,1.55-1.24v-0.02c0-0.8-0.6-1.22-1.51-1.22H5.97v2.48H7.36z"/>
		<path class="st4" d="M10.71,49.42h2.42c0.69,0,1.25,0.21,1.6,0.56c0.27,0.27,0.43,0.67,0.43,1.11v0.02c0,0.93-0.64,1.48-1.53,1.64
			l1.73,2.3h-0.78l-1.63-2.19h-1.61v2.19h-0.64V49.42z M13.08,52.29c0.85,0,1.45-0.43,1.45-1.16v-0.02c0-0.69-0.53-1.11-1.44-1.11
			h-1.74v2.29H13.08z"/>
		<path class="st4" d="M16.53,49.42h4.07V50h-3.44v1.92h3.08v0.58h-3.08v1.97h3.48v0.58h-4.11V49.42z"/>
		<path class="st4" d="M21.92,49.42h0.64l2.05,3.07l2.05-3.07h0.64v5.64h-0.64v-4.56l-2.05,3.02H24.6l-2.05-3.01v4.56h-0.62V49.42z"
			/>
		<path class="st4" d="M28.96,49.42h0.64v5.64h-0.64V49.42z"/>
		<path class="st4" d="M31.25,49.42h4.07V50h-3.44v1.92h3.07v0.58h-3.07v1.97h3.48v0.58h-4.11V49.42z"/>
		<path class="st4" d="M36.64,49.42h2.42c0.69,0,1.25,0.21,1.6,0.56c0.27,0.27,0.43,0.67,0.43,1.11v0.02c0,0.93-0.64,1.48-1.53,1.64
			l1.73,2.3h-0.78l-1.63-2.19h-1.61v2.19h-0.64V49.42z M39.01,52.29c0.85,0,1.45-0.43,1.45-1.16v-0.02c0-0.69-0.53-1.11-1.44-1.11
			h-1.74v2.29H39.01z"/>
		<path class="st4" d="M44.88,49.42h0.64v5.05h3.17v0.59h-3.81V49.42z"/>
		<path class="st4" d="M49.91,49.42h0.64v5.64h-0.64V49.42z"/>
		<path class="st4" d="M51.95,52.25v-0.02c0-1.55,1.13-2.91,2.83-2.91c0.95,0,1.54,0.27,2.1,0.75l-0.41,0.48
			c-0.43-0.38-0.92-0.64-1.71-0.64c-1.25,0-2.14,1.05-2.14,2.31v0.02c0,1.34,0.86,2.34,2.23,2.34c0.64,0,1.24-0.25,1.63-0.56v-1.4
			h-1.71v-0.57h2.33v2.25c-0.52,0.47-1.31,0.86-2.26,0.86C53.04,55.15,51.95,53.86,51.95,52.25z"/>
		<path class="st4" d="M58.51,49.42h0.64v2.5h3.25v-2.5h0.64v5.64H62.4v-2.54h-3.25v2.54h-0.64V49.42z"/>
		<path class="st4" d="M66.11,50h-1.89v-0.59h4.43V50h-1.89v5.05h-0.64V50z"/>
		<path class="st4" d="M69.9,49.42h0.64v5.64H69.9V49.42z"/>
		<path class="st4" d="M72.18,49.42h0.6l3.55,4.52v-4.52h0.62v5.64h-0.51l-3.64-4.62v4.62h-0.62V49.42z"/>
		<path class="st4" d="M78.29,52.25v-0.02c0-1.55,1.13-2.91,2.83-2.91c0.95,0,1.54,0.27,2.1,0.75l-0.41,0.48
			c-0.43-0.38-0.92-0.64-1.71-0.64c-1.25,0-2.14,1.05-2.14,2.31v0.02c0,1.34,0.86,2.34,2.23,2.34c0.64,0,1.24-0.25,1.63-0.56v-1.4
			h-1.71v-0.57h2.33v2.25c-0.52,0.47-1.31,0.86-2.26,0.86C79.39,55.15,78.29,53.86,78.29,52.25z"/>
	</g>
</g>
</svg>
