<svg width="209" height="64" viewBox="0 0 209 64" fill="none" xmlns="http://www.w3.org/2000/svg">
<path d="M5 5H59V59H5V5Z" fill="#BD472A"/>
<path d="M79.0365 58.24C78.0275 58.24 77.5229 56.258 77.5229 54.5282V50.5641C77.5229 49.9155 77.0545 49.0146 76.1535 49.0146H74.676V58.24H68.2254V34.2396H77.3788C80.514 34.2396 83.433 36.4017 83.433 39.7171V43.2487C83.433 44.4739 82.5681 45.9514 80.9104 46.6362C82.5681 47.3209 83.541 48.7984 83.541 50.0597V54.24C83.541 55.7535 83.9375 56.9787 84.3699 58.132V58.24H79.0365ZM77.3428 40.2937C77.3428 39.4288 76.9824 39.1046 76.2617 39.1046H74.676V44.6541H76.2617C76.9824 44.6541 77.3428 44.3298 77.3428 43.465V40.2937ZM95.3607 58.24L94.9283 54.8886H91.1084L90.5678 58.24H84.6939L89.5589 34.2396H97.0545L101.811 58.24H95.3607ZM93.2346 42.3478L91.8652 50.456H94.3156L93.2346 42.3478ZM114.316 58.24L108.91 46.9605V58.24H103.144V34.2396H108.73L113.883 45.7353V34.2396H119.613V58.24H114.316ZM130.316 58.8527C125.487 58.8527 121.955 55.8977 121.955 51.4651V41.0145C121.955 36.582 125.487 33.6269 130.316 33.6269C134.893 33.6269 137.812 36.4378 137.812 40.5821V43.2848H132.082V40.546C132.082 39.609 131.469 38.9604 130.316 38.9604C129.163 38.9604 128.55 39.609 128.55 40.546V51.9336C128.55 52.8706 129.163 53.5192 130.316 53.5192C131.469 53.5192 132.082 52.8706 132.082 51.9336V49.1948H137.812V51.8976C137.812 56.0417 134.893 58.8527 130.316 58.8527ZM150.244 58.24V49.4471H146.424V58.24H139.974V34.2396H146.424V43.9695H150.244V34.2396H156.695V58.24H150.244ZM159.217 58.24V34.2396H172.947V39.4649H165.668V43.6812H170.389V48.2219H165.668V52.6904H172.947V58.24H159.217ZM185.884 58.24C184.875 58.24 184.37 56.258 184.37 54.5282V50.5641C184.37 49.9155 183.902 49.0146 183.001 49.0146H181.524V58.24H175.073V34.2396H184.226C187.361 34.2396 190.281 36.4017 190.281 39.7171V43.2487C190.281 44.4739 189.416 45.9514 187.758 46.6362C189.416 47.3209 190.389 48.7984 190.389 50.0597V54.24C190.389 55.7535 190.785 56.9787 191.217 58.132V58.24H185.884ZM184.19 40.2937C184.19 39.4288 183.83 39.1046 183.109 39.1046H181.524V44.6541H183.109C183.83 44.6541 184.19 44.3298 184.19 43.465V40.2937ZM200.082 58.8527C195.181 58.8527 192.226 56.294 192.226 52.0056V50.7083H197.848V51.8615C197.848 53.0147 198.569 53.8435 199.794 53.8435C201.019 53.8435 201.596 53.1588 201.596 51.8976C201.596 50.4201 199.83 49.375 197.848 48.1137C195.289 46.5281 192.406 44.5821 192.406 41.0505C192.406 37.3027 195.073 33.6629 200.262 33.6629C204.515 33.6629 207.434 36.726 207.434 40.4739V41.4829H201.812V40.3658C201.812 39.3207 201.127 38.6721 200.262 38.6721C199.433 38.6721 198.569 39.2486 198.569 40.4019C198.569 41.8793 200.334 42.8883 202.316 44.1497C204.875 45.7713 207.794 47.7533 207.794 51.429C207.794 55.2129 205.055 58.8527 200.082 58.8527ZM93.5354 31.04L93.042 28.7625C90.6885 30.8882 87.3102 31.989 83.8179 31.989C74.9735 31.989 67.7233 26.7886 67.7233 18.7413V18.2858C67.7233 10.3524 75.3151 4.81039 85.4502 4.81039C91.7514 4.81039 96.4963 5.98706 100.368 7.88508L96.3824 15.2491C93.5354 13.9585 90.9922 13.2373 88.0314 13.2373C83.8559 13.2373 81.1988 15.5907 81.1988 18.8552V19.0829C81.1988 22.0058 83.3624 24.0556 86.8167 24.0556C88.7906 24.0556 90.3849 23.2205 91.22 21.9679V21.816H85.2224V17.3368H100.975V31.04H93.5354ZM119.613 31.989C108.756 31.989 102.417 25.9156 102.417 18.5895V18.1339C102.417 10.77 108.756 4.81039 119.613 4.81039C130.431 4.81039 136.77 10.77 136.77 18.1339V18.5895C136.77 25.9156 130.431 31.989 119.613 31.989ZM123.295 18.0581C123.295 15.2491 122.687 12.6679 119.613 12.6679C116.538 12.6679 115.893 15.2491 115.893 18.0581V18.7033C115.893 21.4743 116.538 24.0556 119.613 24.0556C122.687 24.0556 123.295 21.4743 123.295 18.7033V18.0581ZM155.483 31.989C144.627 31.989 138.288 25.9156 138.288 18.5895V18.1339C138.288 10.77 144.627 4.81039 155.483 4.81039C166.302 4.81039 172.641 10.77 172.641 18.1339V18.5895C172.641 25.9156 166.302 31.989 155.483 31.989ZM159.165 18.0581C159.165 15.2491 158.558 12.6679 155.483 12.6679C152.409 12.6679 151.763 15.2491 151.763 18.0581V18.7033C151.763 21.4743 152.409 24.0556 155.483 24.0556C158.558 24.0556 159.165 21.4743 159.165 18.7033V18.0581ZM191.164 31.04H174.918V5.75935H191.164C202.4 5.75935 208.322 11.3013 208.322 18.1339V18.5895C208.322 25.3841 202.4 31.04 191.164 31.04ZM194.884 18.0581C194.884 15.5148 193.632 13.3891 190.215 13.3891H188.128V23.3344H190.215C193.632 23.3344 194.884 21.2086 194.884 18.6654V18.0581Z" fill="#F1F0D8"/>
<path d="M64 4.8V0H59.2C59.2 1.76732 57.7673 3.2 56 3.2C54.2327 3.2 52.8 1.76732 52.8 0H49.6C49.6 1.76732 48.1673 3.2 46.4 3.2C44.6327 3.2 43.2 1.76732 43.2 0H40C40 1.76732 38.5673 3.2 36.8 3.2C35.0327 3.2 33.6 1.76732 33.6 0H30.4C30.4 1.76732 28.9673 3.2 27.2 3.2C25.4327 3.2 24 1.76732 24 0H20.8C20.8 1.76732 19.3673 3.2 17.6 3.2C15.8327 3.2 14.4 1.76732 14.4 0H11.2C11.2 1.76732 9.76732 3.2 8 3.2C6.23268 3.2 4.8 1.76732 4.8 0H0V4.8C1.76732 4.8 3.2 6.23268 3.2 8C3.2 9.76732 1.76732 11.2 0 11.2V14.4C1.76732 14.4 3.2 15.8327 3.2 17.6C3.2 19.3673 1.76732 20.8 0 20.8V24C1.76732 24 3.2 25.4327 3.2 27.2C3.2 28.9673 1.76732 30.4 0 30.4V33.6C1.76732 33.6 3.2 35.0327 3.2 36.8C3.2 38.5673 1.76732 40 0 40V43.2C1.76732 43.2 3.2 44.6327 3.2 46.4C3.2 48.1673 1.76732 49.6 0 49.6V52.8C1.76732 52.8 3.2 54.2327 3.2 56C3.2 57.7673 1.76732 59.2 0 59.2V64H4.8C4.8 62.2327 6.23268 60.8 8 60.8C9.76732 60.8 11.2 62.2327 11.2 64H14.4C14.4 62.2327 15.8327 60.8 17.6 60.8C19.3673 60.8 20.8 62.2327 20.8 64H24C24 62.2327 25.4327 60.8 27.2 60.8C28.9673 60.8 30.4 62.2327 30.4 64H33.6C33.6 62.2327 35.0327 60.8 36.8 60.8C38.5673 60.8 40 62.2327 40 64H43.2C43.2 62.2327 44.6327 60.8 46.4 60.8C48.1673 60.8 49.6 62.2327 49.6 64H52.8C52.8 62.2327 54.2327 60.8 56 60.8C57.7673 60.8 59.2 62.2327 59.2 64H64V59.2C62.2327 59.2 60.8 57.7673 60.8 56C60.8 54.2327 62.2327 52.8 64 52.8V49.6C62.2327 49.6 60.8 48.1673 60.8 46.4C60.8 44.6327 62.2327 43.2 64 43.2V40C62.2327 40 60.8 38.5673 60.8 36.8C60.8 35.0327 62.2327 33.6 64 33.6V30.4C62.2327 30.4 60.8 28.9673 60.8 27.2C60.8 25.4327 62.2327 24 64 24V20.8C62.2327 20.8 60.8 19.3673 60.8 17.6C60.8 15.8327 62.2327 14.4 64 14.4V11.2C62.2327 11.2 60.8 9.76732 60.8 8C60.8 6.23268 62.2327 4.8 64 4.8ZM57.6 57.6H16.3334C19.8784 52.3611 27.5648 50.1518 33.1127 50.9334C36.3817 51.3939 38.9255 46.3063 43.3978 46.3063C44.3504 46.3063 44.1078 47.5813 47.2617 47.5813C49.0787 47.5813 53.1934 46.0689 53.1934 42.6971C53.1934 41.5176 51.4134 43.0911 47.2995 29.6926C46.841 28.1992 47.8874 28.555 47.7176 27.6573C46.8876 23.2711 45.2815 24.3926 44.612 19.6346C44.4038 18.1541 43.9577 17.6272 40.3611 17.4405C41.6565 14.5186 49.6594 12.6217 49.6594 8.97891C49.6594 8.24669 49.495 10.3133 40.2414 12.568C35.4279 13.7408 32.4669 13.9465 32.333 17.339C16.7937 17.3383 17.5476 12.78 6.4 11.5196V6.4H57.6V57.6Z" fill="#F1F0D8"/>
</svg>
